<svg width="261" height="36" viewBox="0 0 261 36" fill="none" xmlns="http://www.w3.org/2000/svg">
<g clip-path="url(#clip0_34_2)">
<path d="M60.67 7.95V17.55H50.39V8H53.45V10.26H57.61V7.95H60.67ZM53.27 28.11V19.11H56.35V21.11H64.27V19.11H67.33V28.11H53.27ZM57.61 15V12.82H53.45V15H57.61ZM64.28 23.6H56.36V25.6H64.28V23.6ZM64.28 11.41V7H67.34V18.15H64.28V14H61.55V11.45L64.28 11.41Z" fill="white"/>
<path d="M78.21 28.2201V21.4201H70.21V18.8701H89.35V21.4201H81.29V28.2201H78.21ZM72.84 17.0001V8.06006H86.84V17.0001H72.84ZM83.71 10.6101H75.92V14.4701H83.71V10.6101Z" fill="white"/>
<path d="M102 7.95V17.55H91.77V8H94.83V10.26H99V7.95H102ZM94.65 28.11V19.11H97.73V21.11H105.65V19.11H108.71V28.11H94.65ZM99 15V12.82H94.83V15H99ZM105.67 23.6H97.73V25.6H105.65L105.67 23.6ZM105.67 11.41V7H108.73V18.15H105.67V14H102.94V11.45L105.67 11.41Z" fill="white"/>
<path d="M112.45 13.37C112.441 12.6202 112.581 11.876 112.86 11.18C113.121 10.536 113.508 9.95108 114 9.46C114.487 8.96799 115.073 8.58607 115.72 8.34C117.132 7.80895 118.688 7.80895 120.1 8.34C120.746 8.588 121.335 8.96576 121.83 9.45C122.321 9.93585 122.705 10.5181 122.96 11.16C123.238 11.8597 123.378 12.607 123.37 13.36C123.378 14.113 123.238 14.8603 122.96 15.56C122.707 16.2055 122.322 16.7912 121.83 17.28C121.335 17.7636 120.746 18.1412 120.1 18.39C118.687 18.9165 117.132 18.9165 115.72 18.39C115.073 18.1434 114.487 17.7615 114 17.27C113.515 16.7773 113.135 16.1924 112.88 15.55C112.595 14.8586 112.449 14.1178 112.45 13.37ZM115.31 27.89V20.46H118.39V25.34H129.73V27.89H115.31ZM120.31 13.37C120.33 12.6577 120.123 11.9575 119.72 11.37C119.492 11.1139 119.212 10.909 118.9 10.7686C118.587 10.6283 118.248 10.5558 117.905 10.5558C117.562 10.5558 117.223 10.6283 116.91 10.7686C116.597 10.909 116.318 11.1139 116.09 11.37C115.67 11.9506 115.456 12.6541 115.48 13.37C115.46 14.0853 115.675 14.7874 116.09 15.37C116.318 15.6261 116.597 15.831 116.91 15.9714C117.223 16.1117 117.562 16.1842 117.905 16.1842C118.248 16.1842 118.587 16.1117 118.9 15.9714C119.212 15.831 119.492 15.6261 119.72 15.37C120.124 14.7831 120.331 14.0825 120.31 13.37ZM129.4 22.76H126.34V7H129.4V22.76Z" fill="white"/>
<path d="M139.94 8.4H149.8V9.17C149.803 10.2914 149.585 11.4024 149.16 12.44C148.719 13.5042 148.088 14.4799 147.3 15.32C146.417 16.2536 145.407 17.0582 144.3 17.71C143.039 18.4643 141.697 19.0748 140.3 19.53L138.93 17.23C140.751 16.7199 142.451 15.8494 143.93 14.67C145.124 13.7215 146.017 12.4465 146.5 11H139.94V8.4ZM142.19 28.11V20H156.25V28.11H142.19ZM153.19 22.51H145.26V25.6H153.19V22.51ZM156.25 19.05H153.19V7H156.25V19.05Z" fill="white"/>
<path d="M159.33 13.37C159.326 12.6674 159.434 11.9687 159.65 11.3C159.848 10.67 160.164 10.083 160.58 9.57C160.999 9.07098 161.521 8.66846 162.11 8.39C162.774 8.08512 163.499 7.93469 164.23 7.95C164.963 7.93545 165.69 8.08225 166.36 8.38C166.957 8.64998 167.487 9.04967 167.91 9.55C168.336 10.0596 168.658 10.6472 168.86 11.28C169.286 12.6408 169.286 14.0992 168.86 15.46C168.659 16.0929 168.336 16.6805 167.91 17.19C167.487 17.6903 166.957 18.09 166.36 18.36C165.69 18.6577 164.963 18.8045 164.23 18.79C163.499 18.805 162.774 18.6545 162.11 18.35C161.52 18.0686 160.998 17.6626 160.58 17.16C160.164 16.6468 159.849 16.0599 159.65 15.43C159.436 14.7644 159.328 14.0692 159.33 13.37ZM166.15 13.37C166.153 12.9976 166.119 12.6259 166.05 12.26C165.993 11.9446 165.885 11.6406 165.73 11.36C165.59 11.1112 165.386 10.9042 165.14 10.76C164.863 10.6133 164.553 10.5409 164.24 10.55C163.949 10.5312 163.658 10.5978 163.404 10.7417C163.15 10.8856 162.944 11.1005 162.81 11.36C162.496 11.9787 162.345 12.6668 162.37 13.36C162.368 13.7394 162.405 14.1181 162.48 14.49C162.543 14.8053 162.654 15.1089 162.81 15.39C162.947 15.6471 163.154 15.8598 163.407 16.0033C163.66 16.1468 163.949 16.215 164.24 16.2C164.553 16.2091 164.863 16.1367 165.14 15.99C165.387 15.8466 165.591 15.6394 165.73 15.39C165.885 15.1097 165.994 14.8056 166.05 14.49C166.12 14.1209 166.153 13.7457 166.15 13.37ZM162.94 27.89V20.46H166V25.34H177.91V27.89H162.94ZM173 13H174.36V7H177.36V22.76H174.36V15.53H173V22.53H170V7.43H173V13Z" fill="white"/>
<path d="M192.52 22.49C190.367 22.7433 188.257 22.9367 186.19 23.07C184.123 23.2033 182.027 23.2867 179.9 23.32L179.53 20.79H180.82H182.11L181.32 12.79L184.32 12.45L185.09 20.67C185.35 20.67 185.62 20.67 185.89 20.61C186.16 20.55 186.43 20.61 186.7 20.55L187.49 12.44L190.49 12.78L189.74 20.3L190.89 20.19L192.1 20L192.52 22.49ZM180 11.72V9.14H191.6V11.72H180ZM196.5 14.72H199.5V17.29H196.5V28.11H193.44V7H196.5V14.72Z" fill="white"/>
<path d="M200.48 25.4001V22.8501H219.63V25.4001H200.48ZM206.2 15.7101V17.7901H217.2V20.3401H203.12V8.62012H217V11.1701H206.21V13.1701H216.75V15.7201L206.2 15.7101Z" fill="white"/>
<path d="M234.18 21.67C232.386 22.1769 230.548 22.5117 228.69 22.67C226.863 22.8367 225.12 22.92 223.46 22.92H222.27V9H225.35V20.39C226.715 20.3522 228.076 20.2454 229.43 20.07C230.863 19.8897 232.28 19.6022 233.67 19.21L234.18 21.67ZM235.94 13.43V7H239V28.11H235.94V16H230.83V13.43H235.94Z" fill="white"/>
<path d="M241.86 25.3999V22.8499H261V25.3999H241.86ZM258.65 19.5099C257.17 19.2387 255.753 18.6962 254.47 17.9099C253.262 17.1716 252.237 16.17 251.47 14.9799C250.695 16.1634 249.671 17.1634 248.47 17.9099C247.191 18.6968 245.777 19.2393 244.3 19.5099L243.3 17.0899C244.165 16.9144 245.01 16.6497 245.82 16.2999C246.611 15.9853 247.347 15.5465 248 14.9999C248.598 14.4795 249.084 13.8434 249.43 13.1299C249.798 12.3382 249.979 11.4727 249.96 10.5999V8.3999H253V10.5899C252.981 11.4627 253.162 12.3282 253.53 13.1199C253.886 13.8408 254.386 14.4807 255 14.9999C255.627 15.5442 256.336 15.9863 257.1 16.3099C257.91 16.6596 258.755 16.9244 259.62 17.0999L258.65 19.5099Z" fill="white"/>
<path d="M41.52 13.34H35.65L22.26 0V28.6L24.83 26.14V15.52H38.83L21.32 32.65L3.79997 15.53H7.32997L15.54 23.7V20.14L10.87 15.51H14.47L17.81 18.92V26.07L20.38 28.59V17.88L16.76 14.26L20.38 10.64V0L17.8 2.52V9.6L14.46 13H10.86L15.44 8.44V4.9L6.99997 13.34H1.10997C0.89539 13.3445 0.686723 13.4112 0.50924 13.5319C0.331757 13.6526 0.193069 13.8221 0.109972 14.02C0.0261127 14.2196 0.00415648 14.4397 0.0469517 14.6519C0.089747 14.8641 0.195319 15.0585 0.349972 15.21L20.53 35C20.7424 35.1961 21.0209 35.305 21.31 35.305C21.5991 35.305 21.8775 35.1961 22.09 35L42.3 15.21C42.4604 15.0581 42.5704 14.8606 42.6151 14.6443C42.6598 14.4279 42.6371 14.203 42.55 14C42.4618 13.8012 42.3172 13.6326 42.1341 13.5153C41.951 13.398 41.7374 13.337 41.52 13.34ZM24.83 13V6.07L31.77 13H24.83Z" fill="white"/>
</g>
<defs>
<clipPath id="clip0_34_2">
<rect width="261" height="35.26" fill="white"/>
</clipPath>
</defs>
</svg>
