<svg xmlns="http://www.w3.org/2000/svg" viewBox="0 0 261 35.26"><defs><style>.cls-1{fill:#595757;}.cls-2{fill:#004567;}</style></defs><title>img_logo_f</title><g id="Layer_2" data-name="Layer 2"><g id="Layer_1-2" data-name="Layer 1"><path class="cls-1" d="M60.67,7.95v9.6H50.39V8h3.06v2.26h4.16V7.95ZM53.27,28.11v-9h3.08v2h7.92v-2h3.06v9ZM57.61,15V12.82H53.45V15Zm6.67,8.6H56.36v2h7.92Zm0-12.19V7h3.06V18.15H64.28V14H61.55V11.45Z"/><path class="cls-1" d="M78.21,28.22v-6.8h-8V18.87H89.35v2.55H81.29v6.8ZM72.84,17V8.06h14V17Zm10.87-6.39H75.92v3.86h7.79Z"/><path class="cls-1" d="M102,7.95v9.6H91.77V8h3.06v2.26H99V7.95ZM94.65,28.11v-9h3.08v2h7.92v-2h3.06v9ZM99,15V12.82H94.83V15Zm6.67,8.6H97.73v2h7.92Zm0-12.19V7h3.06V18.15h-3.06V14h-2.73V11.45Z"/><path class="cls-1" d="M112.45,13.37a5.71,5.71,0,0,1,.41-2.19A5.18,5.18,0,0,1,114,9.46a4.84,4.84,0,0,1,1.72-1.12,6.22,6.22,0,0,1,4.38,0,5.07,5.07,0,0,1,1.73,1.11,5,5,0,0,1,1.13,1.71,5.79,5.79,0,0,1,.41,2.2,5.79,5.79,0,0,1-.41,2.2,5,5,0,0,1-1.13,1.72,5.1,5.1,0,0,1-1.73,1.11,6.27,6.27,0,0,1-4.38,0A4.86,4.86,0,0,1,114,17.27a5.17,5.17,0,0,1-1.12-1.72A5.7,5.7,0,0,1,112.45,13.37Zm2.86,14.52V20.46h3.08v4.88h11.34v2.55Zm5-14.52a3.37,3.37,0,0,0-.59-2,2.43,2.43,0,0,0-3.63,0,3.23,3.23,0,0,0-.61,2,3.29,3.29,0,0,0,.61,2,2.43,2.43,0,0,0,3.63,0A3.35,3.35,0,0,0,120.31,13.37Zm9.09,9.39h-3.06V7h3.06Z"/><path class="cls-2" d="M139.94,8.4h9.86v.77a8.56,8.56,0,0,1-.64,3.27,9.56,9.56,0,0,1-1.86,2.88,13.68,13.68,0,0,1-3,2.39,19.65,19.65,0,0,1-4,1.82l-1.37-2.3a14.13,14.13,0,0,0,5-2.56A7.87,7.87,0,0,0,146.5,11h-6.56Zm2.25,19.71V20h14.06v8.11Zm11-5.6h-7.93V25.6h7.93Zm3.06-3.46h-3.06V7h3.06Z"/><path class="cls-2" d="M159.33,13.37a6.64,6.64,0,0,1,.32-2.07,5.25,5.25,0,0,1,.93-1.73,4.52,4.52,0,0,1,1.53-1.18,4.84,4.84,0,0,1,2.12-.44,5,5,0,0,1,2.13.43,4.41,4.41,0,0,1,1.55,1.17,5.12,5.12,0,0,1,.95,1.73,7,7,0,0,1,0,4.18,5.11,5.11,0,0,1-.95,1.73,4.41,4.41,0,0,1-1.55,1.17,5,5,0,0,1-2.13.43,4.85,4.85,0,0,1-2.12-.44,4.52,4.52,0,0,1-1.53-1.19,5.26,5.26,0,0,1-.93-1.73A6.65,6.65,0,0,1,159.33,13.37Zm6.82,0a5.72,5.72,0,0,0-.1-1.11,2.94,2.94,0,0,0-.32-.9,1.61,1.61,0,0,0-.59-.6,1.81,1.81,0,0,0-.9-.21,1.5,1.5,0,0,0-1.43.81,4.1,4.1,0,0,0-.44,2,5.54,5.54,0,0,0,.11,1.13,3.11,3.11,0,0,0,.33.9,1.53,1.53,0,0,0,1.43.81,1.81,1.81,0,0,0,.9-.21,1.59,1.59,0,0,0,.59-.6,2.91,2.91,0,0,0,.32-.9A5.72,5.72,0,0,0,166.15,13.37Zm-3.21,14.52V20.46H166v4.88h11.91v2.55ZM173,13h1.36V7h3V22.76h-3V15.53H173v7h-3V7.43h3Z"/><path class="cls-2" d="M192.52,22.49q-3.23.38-6.33.58t-6.29.25l-.37-2.53h1.29l1.29,0-.79-8,3-.34.77,8.22c.26,0,.53,0,.8-.06s.54,0,.81-.06l.79-8.11,3,.34-.75,7.52,1.15-.11L192.1,20ZM180,11.72V9.14h11.6v2.58Zm16.5,3h3v2.57h-3V28.11h-3.06V7h3.06Z"/><path class="cls-2" d="M200.48,25.4V22.85h19.15V25.4Zm5.72-9.69v2.08h11v2.55H203.12V8.62H217v2.55H206.21v2h10.54v2.55Z"/><path class="cls-2" d="M234.18,21.67a29.36,29.36,0,0,1-5.49,1q-2.74.25-5.23.25h-1.19V9h3.08V20.39a40.49,40.49,0,0,0,4.08-.32,28.89,28.89,0,0,0,4.24-.86Zm1.76-8.24V7H239V28.11h-3.06V16h-5.11V13.43Z"/><path class="cls-2" d="M241.86,25.4V22.85H261V25.4Zm16.79-5.89a12.21,12.21,0,0,1-4.18-1.6,9.4,9.4,0,0,1-3-2.93,9.71,9.71,0,0,1-3,2.93,12.13,12.13,0,0,1-4.17,1.6l-1-2.42a12.76,12.76,0,0,0,2.52-.79A8,8,0,0,0,248,15a5.87,5.87,0,0,0,1.43-1.87,5.71,5.71,0,0,0,.53-2.53V8.4H253v2.19a5.71,5.71,0,0,0,.53,2.53A5.86,5.86,0,0,0,255,15a7.9,7.9,0,0,0,2.1,1.31,12.77,12.77,0,0,0,2.52.79Z"/><path class="cls-2" d="M41.52,13.34H35.65L22.26,0V28.6l2.57-2.46V15.52h14L21.32,32.65,3.8,15.53H7.33l8.21,8.17V20.14l-4.67-4.63h3.6l3.34,3.41v7.15l2.57,2.52V17.88l-3.62-3.62,3.62-3.62V0L17.8,2.52V9.6L14.46,13h-3.6l4.58-4.56V4.9L7,13.34H1.11a1.11,1.11,0,0,0-1,.68,1.08,1.08,0,0,0,.24,1.19L20.53,35a1.15,1.15,0,0,0,1.56,0L42.3,15.21A1.08,1.08,0,0,0,42.55,14,1.11,1.11,0,0,0,41.52,13.34ZM24.83,13V6.07L31.77,13Z"/></g></g></svg>
