<svg width="43" height="36" viewBox="0 0 43 36" fill="none" xmlns="http://www.w3.org/2000/svg">
<path d="M41.4943 13.34H35.6243L22.2343 0V28.6L24.8043 26.14V15.52H38.8043L21.2943 32.65L3.77434 15.53H7.30434L15.5143 23.7V20.14L10.8443 15.51H14.4443L17.7843 18.92V26.07L20.3543 28.59V17.88L16.7343 14.26L20.3543 10.64V0L17.7743 2.52V9.6L14.4343 13H10.8343L15.4143 8.44V4.9L6.97434 13.34H1.08434C0.869755 13.3445 0.661088 13.4112 0.483605 13.5319C0.306122 13.6526 0.167435 13.8221 0.0843374 14.02C0.00047791 14.2196 -0.0214783 14.4397 0.021317 14.6519C0.0641122 14.8641 0.169684 15.0585 0.324337 15.21L20.5043 35C20.7168 35.1961 20.9952 35.305 21.2843 35.305C21.5734 35.305 21.8519 35.1961 22.0643 35L42.2743 15.21C42.4348 15.0581 42.5448 14.8606 42.5895 14.6443C42.6342 14.4279 42.6114 14.203 42.5243 14C42.4362 13.8012 42.2916 13.6326 42.1085 13.5153C41.9253 13.398 41.7118 13.337 41.4943 13.34ZM24.8043 13V6.07L31.7443 13H24.8043Z" fill="white"/>
</svg>
